<?xml version="1.0" standalone="no"?>
<!DOCTYPE svg PUBLIC "-//W3C//DTD SVG 20010904//EN"
 "http://www.w3.org/TR/2001/REC-SVG-20010904/DTD/svg10.dtd">
<svg version="1.0" xmlns="http://www.w3.org/2000/svg"
 width="1200.000000pt" height="1358.000000pt" viewBox="0 0 1200.000000 1358.000000"
 preserveAspectRatio="xMidYMid meet">
<metadata>
Created by potrace 1.16, written by Peter Selinger 2001-2019
</metadata>
<g transform="translate(0.000000,1358.000000) scale(0.100000,-0.100000)"
fill="#000000" stroke="none">
<path d="M1900 13564 c-84 -22 -208 -85 -280 -143 -226 -180 -370 -489 -370
-796 0 -72 22 -234 39 -294 10 -33 9 -34 -146 -212 -116 -134 -160 -178 -172
-173 -9 4 -75 9 -147 12 -238 9 -383 -45 -536 -198 -72 -73 -94 -103 -133
-183 -117 -240 -113 -502 12 -767 19 -41 44 -94 55 -117 22 -48 73 -96 127
-121 20 -9 38 -20 41 -24 7 -9 108 15 147 35 17 9 42 30 56 47 l26 30 30 -37
c151 -184 320 -846 385 -1518 49 -495 49 -1037 1 -1495 -9 -80 -18 -156 -20
-170 l-6 -25 -137 -1 c-118 -1 -149 -5 -227 -28 -242 -73 -422 -225 -535 -451
-73 -146 -101 -265 -107 -450 -8 -233 33 -444 132 -686 82 -200 173 -361 463
-820 219 -346 342 -596 416 -842 34 -113 36 -125 36 -270 0 -260 -32 -425
-110 -577 -35 -67 -147 -216 -156 -208 -1 2 1 21 6 43 16 67 11 166 -9 210
-33 74 -141 143 -204 130 -158 -32 -236 -115 -237 -252 0 -37 -4 -63 -10 -63
-22 0 29 -207 74 -305 89 -189 217 -293 427 -346 71 -18 103 -21 214 -16 195
7 343 57 479 159 l59 45 69 -75 c66 -71 68 -75 54 -96 -88 -122 -195 -331
-242 -471 -117 -350 -68 -661 137 -867 101 -102 168 -135 311 -151 201 -22
258 -8 322 81 98 134 73 323 -52 398 l-52 31 58 21 c174 64 384 117 592 149
162 25 594 25 765 0 372 -55 782 -196 1055 -362 122 -74 270 -112 476 -122
l121 -6 24 -35 c19 -28 23 -47 22 -91 -2 -81 -20 -115 -119 -217 -111 -112
-168 -143 -282 -151 l-79 -6 -17 75 c-9 42 -30 96 -46 121 -82 129 -254 110
-333 -38 -19 -35 -22 -55 -21 -150 5 -363 182 -625 475 -701 142 -37 362 -14
512 55 131 59 259 168 306 259 l21 42 349 0 348 0 37 -59 c77 -125 231 -233
411 -287 115 -34 301 -39 404 -10 284 78 451 323 468 686 5 112 5 116 -24 170
-37 69 -93 111 -161 118 -111 10 -189 -77 -217 -242 l-6 -39 -77 6 c-131 8
-185 40 -321 187 l-91 99 -6 64 c-5 53 -2 71 15 106 l21 41 78 0 c183 0 364
38 487 101 255 131 319 162 437 209 629 248 1300 267 1956 54 l143 -47 -38
-17 c-48 -21 -107 -86 -124 -136 -34 -99 -5 -232 69 -307 56 -57 109 -69 246
-57 61 6 127 15 146 21 177 56 330 235 386 454 27 105 25 321 -4 438 -41 165
-120 328 -236 490 l-56 78 65 75 c36 41 71 85 77 98 10 24 11 23 105 -50 293
-229 593 -234 826 -14 86 80 137 151 221 308 77 142 101 220 94 307 -11 134
-92 215 -238 240 -48 8 -144 -46 -185 -104 -29 -42 -30 -46 -30 -162 0 -65 -1
-119 -2 -119 -10 0 -111 144 -142 201 -83 157 -115 312 -114 564 1 159 3 177
32 277 84 293 172 464 543 1063 245 395 359 653 419 950 31 155 39 466 14 586
-35 173 -106 315 -219 436 -112 120 -216 186 -376 238 -76 25 -100 28 -231 29
l-147 1 -11 90 c-100 769 -44 1762 140 2500 70 283 165 528 237 614 l29 35 37
-42 c37 -41 97 -68 161 -73 40 -4 113 30 152 71 39 40 144 249 173 345 49 162
34 348 -40 500 -74 153 -173 250 -335 331 -127 63 -220 84 -397 92 l-148 7
-146 200 c-104 143 -144 206 -140 220 51 212 58 262 59 430 0 152 -3 180 -26
267 -76 284 -244 459 -512 529 -130 34 -465 30 -465 -5 0 -9 -20 -15 -58 -18
-122 -12 -207 -84 -231 -199 -32 -147 16 -272 119 -313 22 -9 40 -20 40 -24 0
-15 -203 -208 -270 -257 -70 -51 -221 -142 -362 -219 l-88 -47 20 45 c37 87
48 214 20 231 -4 3 -39 -9 -77 -26 -221 -101 -405 -149 -566 -149 -81 0 -114
6 -233 41 -217 63 -516 135 -685 164 -202 35 -494 45 -644 22 -115 -18 -245
-57 -326 -98 l-57 -28 -36 54 c-120 182 -301 254 -450 181 -65 -32 -184 -138
-218 -195 -12 -20 -22 -37 -24 -39 -1 -2 -28 10 -60 26 -239 120 -569 144
-1004 71 -139 -24 -453 -99 -662 -160 -114 -32 -151 -39 -226 -39 -157 0 -337
47 -540 141 -82 38 -87 39 -100 22 -18 -24 -10 -130 16 -206 10 -31 17 -57 15
-57 -7 0 -107 52 -188 98 -207 117 -330 208 -455 338 l-84 88 34 14 c89 36
138 104 147 201 11 118 -41 242 -117 282 -71 38 -147 68 -205 84 -75 19 -250
19 -325 -1z m509 -84 c60 -34 97 -83 116 -155 37 -145 -3 -256 -110 -306 -54
-25 -149 -25 -198 0 -20 10 -34 14 -31 9 12 -19 73 -38 121 -38 44 0 50 -4 78
-41 38 -51 151 -159 232 -222 80 -61 182 -124 371 -227 137 -75 156 -89 174
-125 35 -68 143 -166 236 -213 l84 -42 -97 0 c-293 0 -732 170 -1044 405 -244
184 -379 384 -389 577 -10 200 64 342 205 394 61 23 198 14 252 -16z m7486 6
c99 -46 160 -146 186 -304 43 -269 -200 -578 -633 -807 -257 -135 -555 -220
-750 -213 l-83 3 66 31 c81 38 140 96 177 170 27 56 27 56 191 145 282 154
415 250 553 399 72 76 77 80 119 80 57 1 120 30 147 68 32 45 27 48 -10 6 -41
-46 -83 -64 -151 -64 -64 0 -112 18 -151 57 -51 51 -61 80 -60 178 0 101 21
159 74 210 68 65 231 86 325 41z m-1546 -1886 l1741 0 0 -3619 0 -3619 -87
-109 c-47 -59 -119 -146 -158 -193 -39 -47 -127 -155 -195 -240 -335 -420
-706 -789 -1068 -1063 -1152 -873 -2495 -1067 -3884 -562 -216 79 -349 137
-573 250 -400 202 -763 445 -1121 751 -162 140 -539 512 -549 544 -7 23 58
166 125 275 133 217 342 423 573 564 177 108 444 223 697 300 153 46 455 120
860 211 521 117 762 200 975 338 66 42 215 181 215 201 0 4 -23 11 -50 15 -82
11 -219 54 -316 100 -140 66 -257 149 -369 260 -114 115 -192 225 -265 379
l-51 106 -51 -24 c-52 -24 -140 -42 -348 -69 -79 -11 -131 -24 -168 -42 l-53
-26 -77 74 c-42 41 -98 87 -124 103 -27 17 -48 33 -48 36 0 4 26 18 58 32 98
44 163 51 401 44 179 -5 354 3 368 17 2 1 -3 18 -9 37 -7 20 -14 143 -17 311
l-6 277 -158 -64 c-204 -82 -294 -133 -386 -222 l-75 -72 -45 29 c-58 39 -129
65 -221 80 l-75 13 45 39 c116 103 263 178 439 226 87 23 115 25 288 26 l193
1 0 437 0 438 -47 -34 c-27 -19 -95 -57 -153 -86 -206 -103 -297 -182 -413
-359 l-62 -93 -20 28 c-11 16 -45 54 -76 85 l-56 57 35 48 c52 72 188 205 261
253 143 97 269 135 429 129 l102 -4 0 288 c0 159 -3 288 -6 288 -10 0 -238
-158 -309 -215 -175 -139 -339 -331 -385 -453 -23 -59 -33 -59 -158 1 l-92 44
58 81 c238 333 493 512 808 565 l79 13 3 177 2 177 -22 -5 c-13 -3 -90 -14
-173 -26 -263 -36 -436 -84 -539 -150 -54 -34 -66 -36 -66 -11 -1 30 -37 98
-74 140 -20 21 -36 42 -36 45 0 10 174 78 251 97 213 55 469 42 611 -31 20
-10 40 -19 43 -19 3 0 5 27 5 60 l0 60 630 0 630 0 0 1320 0 1320 284 -190
285 -190 1740 0z m-5060 -262 c54 -30 131 -105 177 -174 42 -65 90 -191 100
-263 8 -62 20 -64 70 -14 66 65 114 216 114 353 0 53 2 61 17 58 63 -12 81
-260 34 -453 -11 -44 -18 -82 -16 -84 10 -10 71 75 137 191 73 130 122 188
140 170 24 -24 -87 -386 -169 -552 -46 -93 -70 -127 -127 -186 -56 -56 -83
-75 -125 -89 -109 -36 -219 3 -336 119 -115 114 -213 280 -270 456 -34 105
-41 239 -13 266 16 16 18 16 27 -7 87 -210 125 -275 197 -337 54 -46 111 -78
122 -68 4 4 7 83 7 175 l0 167 -37 75 c-20 41 -62 102 -93 136 -31 35 -54 67
-50 73 10 17 49 11 94 -12z m-2685 -93 c88 -19 162 -63 235 -140 64 -69 173
-276 259 -495 322 -814 374 -1804 157 -2955 -49 -260 -60 -301 -76 -296 -8 2
-47 14 -87 25 -68 20 -72 23 -67 46 9 46 35 314 45 465 13 194 13 695 0 900
-49 800 -219 1568 -405 1826 -19 27 -35 57 -35 67 0 12 -6 8 -19 -13 -32 -51
-78 -87 -129 -100 -143 -37 -274 82 -289 263 -17 199 102 378 270 412 60 11
65 11 141 -5z m10946 5 c144 -27 236 -126 276 -297 24 -104 2 -222 -57 -303
-41 -57 -123 -95 -185 -86 -113 15 -181 91 -194 216 -7 64 -7 64 -9 15 0 -28
3 -65 9 -84 8 -31 6 -39 -24 -80 -233 -320 -426 -1351 -426 -2281 0 -272 28
-708 56 -891 l6 -35 -82 -27 c-46 -15 -85 -26 -87 -24 -2 3 -21 94 -43 203
-234 1181 -187 2206 137 3029 70 177 181 402 232 470 64 85 173 155 274 174
59 12 58 12 117 1z m-7123 -472 c-17 -195 -100 -304 -372 -488 -76 -52 -165
-119 -196 -148 l-58 -53 -5 43 c-3 24 -7 84 -10 134 l-5 91 62 60 c76 74 117
101 277 188 152 81 218 130 267 195 21 28 39 50 42 50 2 0 1 -33 -2 -72z
m-1543 -247 c53 -68 155 -166 216 -208 123 -84 241 -123 368 -123 l80 0 -24
-82 c-32 -110 -55 -171 -68 -180 -20 -14 -106 -8 -154 10 -73 28 -157 87 -250
176 -181 174 -302 385 -302 527 0 85 9 87 52 9 21 -40 58 -98 82 -129z m1832
-189 c-74 -148 -162 -215 -501 -381 -199 -99 -233 -119 -294 -176 l-69 -65 -7
37 c-9 49 -35 100 -79 152 -20 24 -36 48 -36 55 0 17 100 91 170 126 86 43
170 68 360 106 267 52 342 82 437 169 27 25 49 44 51 45 1 0 -13 -31 -32 -68z
m-1002 -94 c3 -13 6 -69 6 -125 l0 -101 -34 -12 c-19 -6 -67 -40 -107 -75 -40
-35 -74 -63 -76 -62 -6 7 59 235 78 274 19 39 101 123 119 123 4 0 10 -10 14
-22z m1356 -67 c14 -28 12 -67 -5 -102 -9 -16 -13 -34 -10 -39 10 -16 -5 -49
-26 -60 -15 -9 -26 -6 -53 15 -18 14 -44 25 -57 25 -18 0 -14 -5 21 -22 40
-20 45 -26 42 -53 -3 -38 -18 -68 -42 -83 -16 -10 -21 -6 -41 34 -28 59 -71
80 -135 66 -24 -5 -43 -7 -42 -3 2 18 -4 21 -22 11 -45 -24 -14 4 102 91 119
89 204 139 240 139 10 0 22 -9 28 -19z m-450 -266 c0 -17 -123 -202 -170 -255
-12 -14 -34 -40 -48 -59 -33 -42 -160 -153 -236 -205 -56 -38 -57 -39 -79 -20
-22 19 -22 19 -4 -2 17 -21 16 -21 -50 -52 -98 -44 -171 -64 -194 -52 -29 16
-68 91 -81 155 -13 67 -32 43 147 188 206 166 402 267 577 296 59 10 138 13
138 6z m-934 -70 c14 -14 41 -60 60 -102 l35 -76 -17 -49 c-8 -26 -31 -65 -50
-85 l-34 -36 -33 42 c-42 53 -96 97 -141 116 -30 13 -36 20 -36 45 0 36 23 96
48 124 44 49 129 60 168 21z m-1075 -56 c66 -33 174 -56 349 -74 246 -25 347
-47 465 -104 145 -71 256 -185 339 -348 l26 -52 -86 -83 c-47 -46 -89 -84 -92
-85 -4 -1 -18 21 -31 50 -36 76 -122 157 -211 200 -41 19 -156 58 -255 86
-336 95 -448 177 -538 394 -9 20 -14 37 -11 37 3 0 23 -9 45 -21z m-75 -638
c74 -25 260 -41 468 -41 247 0 405 -34 549 -117 73 -43 220 -186 215 -210 -2
-10 -39 -48 -82 -85 l-79 -69 -36 37 c-109 113 -268 177 -666 270 -342 81
-411 108 -473 188 -12 16 -22 42 -22 58 l0 30 33 -20 c17 -11 59 -30 93 -41z
m1323 -53 c41 -42 74 -100 86 -148 5 -21 -4 -32 -59 -77 -36 -29 -67 -53 -70
-53 -3 0 -19 28 -37 61 -18 34 -50 75 -71 92 -21 17 -38 33 -38 37 0 23 116
130 141 130 3 0 25 -19 48 -42z m-1329 -207 c52 -20 278 -141 235 -125 -11 3
-45 8 -75 9 -46 2 -50 1 -25 -6 17 -5 38 -7 48 -5 9 2 15 0 12 -4 -3 -5 3 -11
12 -13 10 -3 1 -5 -19 -6 -76 -2 -133 -41 -144 -98 -3 -18 -10 -35 -14 -38
-14 -9 -60 36 -69 68 -7 28 -5 36 22 65 17 17 26 32 20 32 -6 0 -25 -16 -42
-37 -29 -36 -30 -36 -55 -19 -16 10 -26 26 -26 41 0 13 -11 41 -25 61 -24 36
-33 83 -17 98 12 13 102 0 162 -23z m558 -161 c87 -11 228 -49 296 -79 22 -10
63 -28 91 -40 27 -12 107 -56 177 -98 l128 -76 0 -57 c0 -42 -7 -71 -27 -111
l-28 -54 -80 2 c-229 4 -557 201 -755 453 l-43 55 39 6 c63 10 115 10 202 -1z
m869 -20 c23 -10 62 -37 87 -60 l46 -42 -39 -45 c-22 -24 -56 -72 -77 -107
l-38 -63 -95 84 c-52 46 -112 93 -133 104 -21 11 -38 23 -38 27 0 12 82 93
115 114 36 23 105 18 172 -12z m-862 -608 c115 -3 169 1 304 22 203 32 289 41
334 32 l35 -7 -50 -107 c-27 -59 -51 -108 -52 -109 -1 -1 -19 2 -41 8 -22 5
-130 13 -240 19 -289 14 -394 45 -509 152 l-51 47 65 -26 c57 -24 82 -27 205
-31z m788 -27 c73 -19 140 -62 132 -84 -4 -9 -15 -39 -26 -67 -11 -28 -30 -61
-44 -74 l-24 -23 -54 37 c-37 26 -68 38 -105 43 -42 5 -52 9 -48 22 2 9 7 30
11 48 8 42 60 113 83 113 10 0 44 -7 75 -15z m128 -427 l79 -82 -21 -30 c-33
-49 -69 -135 -83 -194 l-12 -55 -60 48 c-32 26 -82 70 -111 98 l-51 50 14 39
c20 58 133 208 156 208 5 0 45 -37 89 -82z m-1176 -84 c78 -27 88 -28 380 -35
315 -7 335 -10 437 -60 l47 -22 -19 -26 c-10 -15 -34 -73 -54 -129 -48 -139
-48 -139 -88 -135 -357 44 -643 177 -761 355 -39 60 -59 111 -36 91 8 -6 50
-24 94 -39z m1007 -246 c57 -44 105 -82 107 -84 2 -2 -8 -22 -22 -46 -22 -37
-77 -91 -137 -134 -21 -16 -76 3 -128 45 l-40 31 14 55 c8 30 24 76 35 102 11
27 27 63 34 81 8 17 18 32 24 32 5 0 56 -37 113 -82z m-1136 -409 c65 -29 157
-47 380 -74 334 -39 465 -71 591 -141 57 -32 183 -137 183 -153 0 -6 -156
-189 -201 -235 -18 -19 -19 -18 -91 50 -130 124 -274 205 -587 334 -332 136
-391 178 -391 277 l0 37 38 -38 c20 -22 55 -47 78 -57z m1269 23 c33 -12 86
-32 119 -47 l58 -26 -7 -47 c-14 -100 -76 -179 -180 -231 -47 -23 -48 -23 -62
-5 -42 59 -123 127 -192 161 -42 21 -78 39 -81 41 -11 8 56 115 93 148 l40 37
76 -6 c42 -3 103 -14 136 -25z m23 -505 c41 -23 99 -64 130 -92 60 -55 64 -76
24 -125 -18 -22 -25 -23 -213 -27 -107 -2 -210 -5 -229 -6 -34 -2 -35 -1 -38
40 -3 39 1 46 63 114 86 93 156 151 175 144 8 -3 48 -25 88 -48z m125 -298
c62 -17 93 -87 67 -154 -13 -34 -80 -95 -104 -95 -11 0 -69 16 -130 36 -79 26
-134 38 -190 40 -89 4 -110 16 -126 72 -19 72 -12 78 118 94 141 18 313 22
365 7z m-152 -264 c101 -25 107 -28 122 -61 13 -27 23 -34 46 -34 16 0 34 -7
41 -15 7 -8 49 -26 94 -40 96 -29 130 -59 145 -125 16 -68 14 -79 -20 -111
-53 -50 -135 -29 -183 47 -27 43 -89 104 -106 104 -15 0 -37 -27 -73 -92 -19
-35 -47 -74 -62 -88 -24 -23 -28 -24 -53 -9 -16 8 -33 32 -42 56 -8 23 -18 45
-22 49 -13 13 -54 -23 -72 -64 -17 -37 -49 -62 -81 -62 -7 0 -34 29 -59 65
-54 74 -79 95 -118 95 -21 0 -31 -7 -40 -27 -30 -70 -67 -86 -133 -58 -66 27
-65 102 2 175 51 57 129 92 216 98 68 4 73 6 100 40 15 19 27 45 27 57 0 12 3
25 8 29 13 14 154 -1 263 -29z m-970 -3866 c393 -31 787 -146 1174 -342 147
-74 339 -198 415 -267 54 -49 53 -49 -76 17 -276 141 -545 234 -836 287 -216
40 -349 49 -592 43 -219 -6 -322 -17 -521 -58 -174 -37 -470 -132 -460 -149 3
-5 19 -12 36 -15 41 -9 113 -82 129 -130 21 -62 9 -183 -23 -238 -56 -96 -143
-137 -246 -117 -70 13 -108 36 -148 88 -61 81 -91 242 -63 344 24 87 169 256
287 336 163 111 365 179 593 201 125 12 181 12 331 0z m6344 1 c208 -20 386
-73 540 -161 143 -81 319 -270 351 -376 37 -121 -1 -287 -84 -371 -47 -46 -93
-64 -172 -65 -55 -1 -74 4 -112 25 -77 46 -122 136 -121 245 1 108 60 191 161
224 l36 12 -94 34 c-351 127 -687 180 -1074 170 -441 -12 -813 -107 -1238
-317 l-143 -71 50 46 c136 125 465 309 732 409 411 155 841 227 1168 196z
m-4707 -1037 c52 -38 90 -115 107 -217 l6 -38 84 4 c125 7 188 41 310 171 107
113 109 111 54 -33 -34 -88 -88 -184 -167 -294 -46 -63 -67 -83 -113 -106
-175 -89 -340 -77 -455 32 -76 72 -109 149 -109 258 0 63 5 95 19 123 23 47
70 95 111 114 40 18 120 11 153 -14z m2907 8 c122 -55 161 -227 88 -382 -93
-195 -282 -250 -506 -147 -59 27 -75 41 -125 107 -68 91 -132 200 -171 296
-59 141 -56 141 71 18 106 -103 120 -113 182 -132 56 -17 196 -30 196 -18 0
31 27 132 45 167 51 100 129 133 220 91z"/>
<path d="M7810 11406 c-14 -8 -40 -34 -58 -59 l-32 -45 0 -186 0 -186 25 16
c37 24 143 30 199 11 46 -16 66 -5 24 13 l-23 9 23 0 c22 1 22 2 22 159 0 157
0 158 -29 204 -48 75 -94 95 -151 64z"/>
<path d="M9352 11275 c-366 -93 -483 -148 -633 -295 -120 -118 -199 -245 -275
-442 l-34 -87 0 -2303 0 -2303 34 -77 c98 -225 287 -419 522 -537 173 -87 350
-130 610 -151 130 -11 144 -10 168 6 54 35 72 117 41 191 l-15 36 -58 -6 c-31
-4 -97 -20 -146 -37 -101 -34 -154 -37 -241 -15 -244 63 -501 291 -609 538
l-31 72 0 2295 0 2295 33 103 c96 302 262 495 485 568 68 22 103 27 207 30 93
2 135 -2 165 -13 22 -8 57 -18 77 -20 32 -4 42 0 68 25 58 59 23 153 -68 180
-47 14 -10 21 -300 -53z"/>
<path d="M6958 9178 c-47 -51 -51 -53 -103 -53 -47 0 -58 4 -87 33 -40 38 -74
41 -112 11 -21 -16 -26 -28 -24 -53 4 -43 47 -62 172 -76 156 -18 219 -2 250
65 21 44 21 111 0 119 -33 13 -49 5 -96 -46z"/>
<path d="M5210 9184 c-116 -34 -187 -68 -195 -92 -10 -32 20 -79 54 -87 37 -8
66 7 85 44 18 34 71 61 118 61 25 0 42 -8 63 -30 43 -44 114 -52 129 -14 8 20
-19 77 -54 114 -36 38 -81 39 -200 4z"/>
<path d="M5142 7918 l3 -1023 28 -90 c68 -218 138 -338 277 -475 142 -141 283
-218 471 -256 98 -20 267 -15 364 11 129 35 304 142 401 246 108 116 202 281
264 466 l40 118 0 1013 0 1012 -925 0 -926 0 3 -1022z m917 364 c4 -7 12 -8
21 -2 20 13 77 13 85 0 4 -6 10 -8 14 -6 13 8 173 -43 194 -61 46 -42 39 -73
-42 -193 -36 -53 -36 -52 -14 -97 23 -49 69 -68 117 -48 19 8 44 15 56 15 12
0 30 15 47 41 58 88 164 94 214 12 26 -42 22 -106 -8 -150 -11 -15 -30 -74
-42 -130 -12 -56 -28 -119 -36 -140 l-14 -38 0 48 c-1 28 3 47 10 47 11 0 10
19 -7 133 -3 20 -11 37 -19 37 -7 0 -23 9 -37 19 -25 20 -25 20 -72 -4 -25
-13 -51 -25 -57 -27 -6 -2 -17 -46 -25 -98 -27 -184 -78 -293 -165 -352 -23
-15 -56 -30 -74 -34 -31 -5 -33 -9 -43 -62 -6 -32 -14 -78 -18 -104 l-6 -48
48 1 c91 2 98 7 104 74 5 59 5 60 39 65 27 4 37 13 55 48 20 39 24 42 36 27
11 -13 11 -23 3 -46 -10 -25 -9 -31 4 -36 9 -4 29 -1 44 4 25 10 29 8 35 -9 9
-29 -9 -42 -74 -53 -54 -10 -58 -13 -85 -60 -41 -71 -70 -90 -138 -90 -41 0
-55 -3 -52 -12 4 -9 -6 -13 -31 -13 -24 0 -36 5 -36 14 0 7 -10 16 -22 20 -36
9 -48 7 -48 -9 0 -9 -7 -18 -14 -21 -18 -7 -77 26 -70 38 3 4 0 8 -5 8 -6 0
-38 22 -71 48 -33 27 -79 55 -103 62 -92 29 -104 50 -61 107 l25 33 50 -27
c35 -18 63 -45 92 -87 40 -58 87 -90 104 -72 4 4 10 43 12 87 4 94 -5 109 -78
134 -50 16 -107 68 -134 120 l-16 30 -1 -26 c0 -20 -21 -46 -80 -103 -44 -42
-88 -76 -98 -76 -19 0 -102 56 -102 69 0 5 10 13 23 20 12 6 14 9 4 7 -21 -7
-37 28 -37 81 0 20 -9 46 -20 60 -11 14 -20 38 -20 53 0 16 -7 30 -16 34 -14
5 -15 22 -9 129 4 67 9 125 11 129 5 9 79 -13 211 -62 l103 -37 21 44 c49 101
271 211 393 195 l39 -5 -22 32 c-12 17 -37 42 -54 55 -80 59 -169 59 -347 -2
-63 -22 -128 -43 -144 -47 -58 -13 -106 28 -106 91 0 21 4 24 20 19 15 -5 20
-2 20 12 0 11 6 28 14 38 12 16 18 17 39 8 21 -10 24 -9 20 5 -2 9 3 26 11 37
13 17 18 18 36 7 12 -7 23 -12 23 -10 27 55 67 64 92 21 l16 -28 -5 37 c-4 31
-1 37 17 42 39 10 87 7 87 -6 0 -7 12 2 27 21 25 32 29 33 81 29 29 -3 57 -10
61 -16z"/>
<path d="M6196 7838 c38 -26 57 -49 84 -102 31 -61 35 -78 35 -145 0 -89 -16
-127 -79 -196 -42 -45 -43 -45 -110 -45 -80 0 -126 20 -179 79 -56 62 -78 113
-79 184 -2 115 36 175 132 207 32 11 46 20 36 23 -8 3 -37 -6 -65 -19 -126
-63 -174 -201 -112 -323 27 -52 105 -136 143 -154 48 -22 140 -31 181 -18 82
28 167 162 167 266 -1 120 -108 275 -191 275 -6 0 11 -15 37 -32z"/>
<path d="M6035 7767 c-67 -45 -95 -88 -95 -144 0 -56 17 -89 74 -141 42 -39
50 -42 101 -42 48 0 60 4 81 28 45 47 57 82 56 151 -3 106 -44 160 -132 176
-30 5 -44 1 -85 -28z m155 -27 c33 -46 47 -154 27 -202 -22 -53 -54 -71 -106
-59 -86 19 -131 73 -131 157 0 42 5 55 28 76 39 38 82 58 124 58 29 0 41 -6
58 -30z"/>
<path d="M7100 8482 c-34 -11 -50 -35 -50 -78 0 -37 5 -47 30 -65 36 -28 65
-97 56 -136 -4 -15 -21 -42 -37 -59 -35 -36 -50 -104 -29 -129 23 -27 66 -18
110 23 39 38 40 41 40 103 0 67 -32 241 -55 296 -14 34 -41 53 -65 45z"/>
<path d="M4890 8310 c-11 -11 -20 -24 -20 -29 0 -24 24 -68 50 -93 54 -48 52
-124 -4 -186 -43 -48 -50 -73 -32 -116 18 -44 58 -58 87 -30 22 22 43 103 63
232 20 137 5 182 -76 223 -46 23 -44 23 -68 -1z"/>
<path d="M7087 7142 c-24 -26 -34 -58 -56 -185 -25 -138 -26 -169 -6 -207 18
-35 81 -80 111 -80 56 0 55 73 -1 140 -29 35 -35 50 -35 88 1 54 14 81 53 112
22 18 27 29 27 66 0 70 -54 109 -93 66z"/>
<path d="M4972 7059 c-18 -12 -39 -34 -47 -50 -19 -35 -19 -111 -1 -169 l15
-45 2 75 c2 71 3 69 9 -35 10 -166 52 -258 111 -240 60 19 63 112 4 146 -41
24 -71 92 -61 140 3 17 19 47 36 67 35 42 40 90 12 115 -24 22 -40 21 -80 -4z"/>
<path d="M7671 6368 c0 -13 13 -70 27 -128 l27 -105 147 -3 146 -3 26 113 c15
62 28 121 30 131 4 16 -11 17 -200 17 l-204 0 1 -22z"/>
<path d="M5867 5953 c-23 -22 14 -129 54 -157 28 -19 95 -21 224 -5 146 18
194 55 148 117 -30 41 -77 42 -118 2 -35 -34 -94 -55 -128 -45 -12 4 -41 27
-63 51 -34 35 -48 44 -76 44 -19 0 -38 -3 -41 -7z"/>
</g>
</svg>
